<svg xmlns="http://www.w3.org/2000/svg" fill="none" viewBox="0 0 513 512" width="256" height="256"><g clip-path="url(#a)"><path fill="#f0b90b" fill-rule="evenodd" d="M256.74 0C398.135 0 512.74 114.605 512.74 256C512.74 397.395 398.135 512 256.74 512C115.345 512 0.740234 397.395 0.740234 256C0.740234 114.605 115.345 0 256.74 0Z" clip-rule="evenodd" class="colorF0B90B svgShape"></path><path fill="#ffffff" d="M141.438 256L141.622 323.692L199.14 357.538V397.169L107.961 343.692V236.205L141.438 256ZM141.438 188.308V227.754L107.94 207.938V168.492L141.438 148.677L175.099 168.492L141.438 188.308ZM223.161 168.492L256.658 148.677L290.32 168.492L256.658 188.308L223.161 168.492Z" class="colorfff svgShape"></path><path fill="#ffffff" d="M165.643 309.662V270.031L199.14 289.846V329.292L165.643 309.662ZM223.161 371.733L256.658 391.549L290.319 371.733V411.18L256.658 430.995L223.161 411.18V371.733ZM338.361 168.492L371.858 148.677L405.52 168.492V207.938L371.858 227.754V188.308L338.361 168.492ZM371.858 323.692L372.043 256L405.54 236.185V343.672L314.361 397.149V357.518L371.858 323.692Z" class="colorfff svgShape"></path><path fill="#ffffff" d="M347.837 309.662L314.34 329.292V289.846L347.837 270.031V309.662Z" class="colorfff svgShape"></path><path fill="#ffffff" d="M347.837 202.338L348.022 241.969L290.34 275.815V343.672L256.843 363.303L223.345 343.672V275.815L165.663 241.969V202.338L199.304 182.523L256.637 216.533L314.319 182.523L347.981 202.338H347.837ZM165.643 134.667L256.658 81.0051L347.837 134.667L314.34 154.482L256.658 120.472L199.14 154.482L165.643 134.667Z" class="colorfff svgShape"></path></g><defs><clipPath id="a"><rect width="512" height="512" fill="#ffffff" transform="translate(.74)" class="colorfff svgShape"></rect></clipPath></defs></svg>