<svg xmlns="http://www.w3.org/2000/svg" fill="none" viewBox="0 0 513 512" width="256" height="256"><g clip-path="url(#a)"><path fill="#0088cc" d="M256.364 512C397.749 512 512.364 397.385 512.364 256C512.364 114.615 397.749 0 256.364 0C114.979 0 0.364258 114.615 0.364258 256C0.364258 397.385 114.979 512 256.364 512Z" class="color08C svgShape"></path><path fill="#ffffff" fill-rule="evenodd" d="M185.05 169.143H328.592C334.078 169.143 338.65 170.057 344.135 172.8C350.535 175.543 354.192 180.114 356.021 183.771C356.021 183.771 356.021 184.686 356.935 184.686C359.678 189.257 361.507 194.743 361.507 201.143C361.507 206.629 360.592 212.114 356.935 217.6L266.421 373.029C264.592 376.686 260.935 378.514 256.364 378.514C252.707 378.514 249.05 376.686 246.307 373.029L157.621 217.6C155.792 213.943 152.135 209.371 152.135 202.057C151.221 195.657 153.05 190.171 155.792 184.686C158.535 179.2 163.107 174.629 169.507 172.8C174.992 169.143 181.392 169.143 185.05 169.143ZM245.392 191.086H185.05C181.392 191.086 179.564 191.086 178.65 192C176.821 192.914 175.907 193.829 174.992 195.657C174.078 196.571 174.078 198.4 174.078 200.229C174.078 201.143 174.992 202.057 176.821 205.714L245.392 324.571V191.086ZM267.335 191.086V325.486L336.821 205.714C337.735 203.886 337.735 202.057 337.735 200.229C337.735 198.4 337.735 196.571 336.821 195.657C335.907 194.743 335.907 193.829 334.992 193.829L334.078 192.914C332.25 192 330.421 192 327.678 192H267.335V191.086Z" clip-rule="evenodd" class="colorfff svgShape"></path></g><defs><clipPath id="a"><rect width="512" height="512" fill="#ffffff" transform="translate(.364)" class="colorfff svgShape"></rect></clipPath></defs></svg>