<svg xmlns="http://www.w3.org/2000/svg" x="0px" y="0px" width="100" height="100" viewBox="0 0 48 48">
<linearGradient id="SVGID_1__EpSnyfG2vMP4_gr1" x1="37.081" x2="10.918" y1="10.918" y2="37.081" gradientUnits="userSpaceOnUse"><stop offset="0" stop-color="#60affe"></stop><stop offset=".033" stop-color="#6ab4fe"></stop><stop offset=".197" stop-color="#97cbfe"></stop><stop offset=".362" stop-color="#bddeff"></stop><stop offset=".525" stop-color="#daecff"></stop><stop offset=".687" stop-color="#eef7ff"></stop><stop offset=".846" stop-color="#fbfdff"></stop><stop offset="1" stop-color="#fff"></stop></linearGradient><circle cx="24" cy="24" r="18.5" fill="url(#SVGID_1__EpSnyfG2vMP4_gr1)"></circle><path fill="none" stroke="#2e9bfe" stroke-linecap="round" stroke-linejoin="round" stroke-miterlimit="10" stroke-width="3" d="M33.98,8.42C39.1,11.71,42.5,17.46,42.5,24c0,6.7-3.57,12.57-8.9,15.82"></path><path fill="none" stroke="#2e9bfe" stroke-linecap="round" stroke-linejoin="round" stroke-miterlimit="10" stroke-width="3" d="M24,42.5C13.78,42.5,5.5,34.22,5.5,24S13.78,5.5,24,5.5"></path><path fill="#2e9bfe" d="M30.11,26.36c-0.75-0.44-1.59-0.56-2.42-0.59c-0.7-0.02-1.74-0.48-1.74-1.77c0-0.96,0.77-1.74,1.74-1.77 c0.83-0.03,1.68-0.16,2.42-0.59c1.37-0.8,2.21-2.28,2.21-3.88c0-1.6-0.84-3.08-2.21-3.88c-1.37-0.8-3.05-0.8-4.42,0 c-1.37,0.8-2.13,2.28-2.13,3.88c0,0.87,0.3,1.67,0.69,2.41c0.33,0.62,0.41,1.78-0.71,2.43c-0.83,0.49-1.87,0.18-2.39-0.66 c-0.44-0.71-0.97-1.27-1.71-1.7c-0.69-0.41-1.47-0.61-2.24-0.6c-0.75,0.01-1.5,0.21-2.18,0.6c-1.37,0.8-2.21,2.17-2.21,3.77 s0.84,2.99,2.21,3.78c0.68,0.4,1.45,0.6,2.21,0.6c0.76,0,1.52-0.2,2.21-0.6c0.74-0.43,1.27-1.01,1.71-1.72 c0.36-0.58,1.26-1.33,2.39-0.66c0.83,0.49,1.17,1.56,0.71,2.43c-0.39,0.74-0.69,1.54-0.69,2.41c0,1.6,0.76,3.08,2.13,3.88 c1.37,0.8,3.05,0.8,4.42,0c1.37-0.8,2.21-2.28,2.21-3.88S31.48,27.16,30.11,26.36z"></path>
</svg>