<svg viewBox="0 0 24 24" fill="none" xmlns="http://www.w3.org/2000/svg"><path d="M22.167 3.172H18.98C18.648 1.647 17.35.5 15.797.5s-2.85 1.147-3.182 2.672H1.833c-.41 0-.733.349-.733.768 0 .419.323.768.733.768h10.782c.331 1.525 1.629 2.672 3.182 2.672s2.85-1.147 3.182-2.672h3.188c.41 0 .733-.35.733-.768 0-.42-.323-.768-.733-.768Zm-6.37 2.672c-.986 0-1.797-.848-1.799-1.901v-.006c.002-1.054.813-1.901 1.799-1.901s1.798.849 1.798 1.904-.812 1.904-1.798 1.904ZM22.167 11.232H11.385C11.054 9.707 9.756 8.56 8.203 8.56s-2.85 1.147-3.182 2.672H1.833c-.41 0-.733.349-.733.768 0 .419.323.768.733.768H5.02c.331 1.525 1.629 2.672 3.182 2.672s2.85-1.147 3.182-2.672h10.782c.41 0 .733-.349.733-.768 0-.419-.323-.768-.733-.768ZM8.203 13.904c-.986 0-1.797-.848-1.798-1.901a.083.083 0 0 0 0-.006c.001-1.053.812-1.9 1.798-1.9.987 0 1.799.848 1.799 1.903 0 1.055-.812 1.904-1.799 1.904ZM22.167 19.292H18.98c-.331-1.525-1.629-2.672-3.182-2.672s-2.85 1.147-3.182 2.672H1.833c-.41 0-.733.35-.733.768 0 .42.323.768.733.768h10.782c.331 1.525 1.629 2.672 3.182 2.672s2.85-1.147 3.182-2.672h3.188c.41 0 .733-.349.733-.768 0-.419-.323-.768-.733-.768Zm-6.37 2.672c-.986 0-1.797-.847-1.799-1.901v-.006c.002-1.053.813-1.9 1.799-1.9s1.798.848 1.798 1.903c0 1.055-.812 1.904-1.798 1.904Z" fill="currentColor" stroke="currentColor" stroke-width="0.2"></path></svg>